<svg width="400" height="225" viewBox="0 0 400 225" fill="none" xmlns="http://www.w3.org/2000/svg">
  <rect width="400" height="225" fill="#f8fafc"/>
  <rect x="20" y="20" width="360" height="185" rx="8" fill="#e2e8f0" stroke="#cbd5e1" stroke-width="2"/>
  
  <!-- Header -->
  <rect x="30" y="30" width="340" height="40" rx="4" fill="#10b981"/>
  <rect x="40" y="40" width="100" height="20" rx="2" fill="white"/>
  <rect x="150" y="40" width="60" height="20" rx="2" fill="white"/>
  <rect x="220" y="40" width="60" height="20" rx="2" fill="white"/>
  <rect x="290" y="40" width="60" height="20" rx="2" fill="white"/>
  <rect x="360" y="40" width="20" height="20" rx="10" fill="white"/>
  
  <!-- Task List -->
  <rect x="30" y="80" width="340" height="30" rx="4" fill="white" stroke="#e2e8f0" stroke-width="1"/>
  <rect x="40" y="85" width="20" height="20" rx="10" fill="#10b981"/>
  <rect x="70" y="90" width="120" height="8" rx="1" fill="#64748b"/>
  <rect x="70" y="102" width="80" height="6" rx="1" fill="#94a3b8"/>
  <rect x="200" y="85" width="60" height="20" rx="10" fill="#f59e0b"/>
  <rect x="270" y="85" width="80" height="20" rx="10" fill="#ef4444"/>
  
  <rect x="30" y="120" width="340" height="30" rx="4" fill="white" stroke="#e2e8f0" stroke-width="1"/>
  <rect x="40" y="125" width="20" height="20" rx="10" fill="#e5e7eb"/>
  <rect x="70" y="130" width="100" height="8" rx="1" fill="#64748b"/>
  <rect x="70" y="142" width="60" height="6" rx="1" fill="#94a3b8"/>
  <rect x="180" y="125" width="60" height="20" rx="10" fill="#10b981"/>
  <rect x="250" y="125" width="80" height="20" rx="10" fill="#3b82f6"/>
  
  <rect x="30" y="160" width="340" height="30" rx="4" fill="white" stroke="#e2e8f0" stroke-width="1"/>
  <rect x="40" y="165" width="20" height="20" rx="10" fill="#e5e7eb"/>
  <rect x="70" y="170" width="140" height="8" rx="1" fill="#64748b"/>
  <rect x="70" y="182" width="100" height="6" rx="1" fill="#94a3b8"/>
  <rect x="220" y="165" width="60" height="20" rx="10" fill="#f59e0b"/>
  <rect x="290" y="165" width="60" height="20" rx="10" fill="#8b5cf6"/>
  
  <!-- Progress Bar -->
  <rect x="30" y="200" width="340" height="8" rx="4" fill="#e2e8f0"/>
  <rect x="30" y="200" width="204" height="8" rx="4" fill="#10b981"/>
  
  <!-- Text -->
  <text x="200" y="220" text-anchor="middle" font-family="Arial, sans-serif" font-size="12" fill="#64748b">Task Management App</text>
</svg>
